HIERARCHY
ROOT reference
{
  OFFSET -65.3212 -1.93545 -120.338
  CHANNELS 6 Xposition Yposition Zposition Zrotation Xrotation Yrotation
  JOINT Hips
  {
    OFFSET 0 78.7191 0
    CHANNELS 3 Zrotation Xrotation Yrotation
    JOINT Chest
    {
      OFFSET 0 8.7983 -4.7612
      CHANNELS 3 Zrotation Xrotation Yrotation
      JOINT Chest2
      {
        OFFSET 0 8.0291 0.4195
        CHANNELS 3 Zrotation Xrotation Yrotation
        JOINT Chest3
        {
          OFFSET 0 9.9351 -2.2114
          CHANNELS 3 Zrotation Xrotation Yrotation
          JOINT Neck
          {
            OFFSET 0 22.3885 -0.4656
            CHANNELS 3 Zrotation Xrotation Yrotation
            JOINT Head
            {
              OFFSET -0.0001 12.643 3.4389
              CHANNELS 3 Zrotation Xrotation Yrotation
              End Site
              {
                OFFSET 0.0001 17.6655 0.5274
              }
            }
          }
          JOINT LeftCollar
          {
            OFFSET 2.2603 21.606 7.4023
            CHANNELS 3 Zrotation Xrotation Yrotation
            JOINT LeftShoulder
            {
              OFFSET 13.5163 -1.1332 -5.0146
              CHANNELS 3 Zrotation Xrotation Yrotation
              JOINT LeftElbow
              {
                OFFSET -0.0995 -28.05 -0.2431
                CHANNELS 3 Zrotation Xrotation Yrotation
                JOINT LeftWrist
                {
                  OFFSET 0.0679 -23.3996 -0.1402
                  CHANNELS 3 Zrotation Xrotation Yrotation
                  JOINT LeftFinger1
                  {
                    OFFSET 0.7932 -9.069 2.5189
                    CHANNELS 3 Zrotation Xrotation Yrotation
                    JOINT LeftFinger11
                    {
                      OFFSET -0.8272 -3.3923 0.5977
                      CHANNELS 3 Zrotation Xrotation Yrotation
                      JOINT LeftFinger12
                      {
                        OFFSET -0.5649 -2.3158 0.4082
                        CHANNELS 3 Zrotation Xrotation Yrotation
                        End Site
                        {
                          OFFSET -0.4919 -1.6479 0.2673
                        }
                      }
                    }
                  }
                  JOINT LeftFinger2
                  {
                    OFFSET 0.9159 -9.2044 0.2193
                    CHANNELS 3 Zrotation Xrotation Yrotation
                    JOINT LeftFinger21
                    {
                      OFFSET 0.0117 -4.1944 -0.0248
                      CHANNELS 3 Zrotation Xrotation Yrotation
                      JOINT LeftFinger22
                      {
                        OFFSET 0.0071 -2.3249 -0.0142
                        CHANNELS 3 Zrotation Xrotation Yrotation
                        End Site
                        {
                          OFFSET -0.1475 -2.0882 0.0028
                        }
                      }
                    }
                  }
                  JOINT LeftFinger3
                  {
                    OFFSET 0.6113 -8.7231 -2.0637
                    CHANNELS 3 Zrotation Xrotation Yrotation
                    JOINT LeftFinger31
                    {
                      OFFSET -0.1927 -3.8059 -0.2383
                      CHANNELS 3 Zrotation Xrotation Yrotation
                      JOINT LeftFinger32
                      {
                        OFFSET -0.1091 -2.1688 -0.1362
                        CHANNELS 3 Zrotation Xrotation Yrotation
                        End Site
                        {
                          OFFSET -0.2358 -1.9176 -0.0906
                        }
                      }
                    }
                  }
                  JOINT LeftFinger4
                  {
                    OFFSET -0.6151 -8.0947 -3.5641
                    CHANNELS 3 Zrotation Xrotation Yrotation
                    JOINT LeftFinger41
                    {
                      OFFSET -0.4882 -2.341 -0.6462
                      CHANNELS 3 Zrotation Xrotation Yrotation
                      JOINT LeftFinger42
                      {
                        OFFSET -0.3575 -1.7167 -0.4742
                        CHANNELS 3 Zrotation Xrotation Yrotation
                        End Site
                        {
                          OFFSET -0.4187 -1.5237 -0.3496
                        }
                      }
                    }
                  }
                  JOINT LeftFinger0
                  {
                    OFFSET -1.42 -1.8761 1.4223
                    CHANNELS 3 Zrotation Xrotation Yrotation
                    JOINT LeftFinger01
                    {
                      OFFSET -1.1471 -3.4929 2.6334
                      CHANNELS 3 Zrotation Xrotation Yrotation
                      JOINT LeftFinger02
                      {
                        OFFSET -0.823 -2.3 1.6571
                        CHANNELS 3 Zrotation Xrotation Yrotation
                        End Site
                        {
                          OFFSET -0.5822 -1.6914 1.1582
                        }
                      }
                    }
                  }
                }
              }
            }
          }
          JOINT RightCollar
          {
            OFFSET -2.2603 21.606 7.4023
            CHANNELS 3 Zrotation Xrotation Yrotation
            JOINT RightShoulder
            {
              OFFSET -13.5187 -1.1334 -5.0155
              CHANNELS 3 Zrotation Xrotation Yrotation
              JOINT RightElbow
              {
                OFFSET 0.0994 -28.0499 -0.2431
                CHANNELS 3 Zrotation Xrotation Yrotation
                JOINT RightWrist
                {
                  OFFSET -0.0679 -23.3996 -0.1402
                  CHANNELS 3 Zrotation Xrotation Yrotation
                  JOINT RightFinger1
                  {
                    OFFSET -0.7932 -9.0691 2.5189
                    CHANNELS 3 Zrotation Xrotation Yrotation
                    JOINT RightFinger11
                    {
                      OFFSET 0.8272 -3.3923 0.5977
                      CHANNELS 3 Zrotation Xrotation Yrotation
                      JOINT RightFinger12
                      {
                        OFFSET 0.565 -2.3158 0.4082
                        CHANNELS 3 Zrotation Xrotation Yrotation
                        End Site
                        {
                          OFFSET 0.4919 -1.6479 0.2673
                        }
                      }
                    }
                  }
                  JOINT RightFinger2
                  {
                    OFFSET -0.916 -9.2044 0.2193
                    CHANNELS 3 Zrotation Xrotation Yrotation
                    JOINT RightFinger21
                    {
                      OFFSET -0.0117 -4.1944 -0.0248
                      CHANNELS 3 Zrotation Xrotation Yrotation
                      JOINT RightFinger22
                      {
                        OFFSET -0.0071 -2.3249 -0.0142
                        CHANNELS 3 Zrotation Xrotation Yrotation
                        End Site
                        {
                          OFFSET 0.1475 -2.0882 0.0028
                        }
                      }
                    }
                  }
                  JOINT RightFinger3
                  {
                    OFFSET -0.6113 -8.7231 -2.0637
                    CHANNELS 3 Zrotation Xrotation Yrotation
                    JOINT RightFinger31
                    {
                      OFFSET 0.1927 -3.8059 -0.2383
                      CHANNELS 3 Zrotation Xrotation Yrotation
                      JOINT RightFinger32
                      {
                        OFFSET 0.1091 -2.1688 -0.1362
                        CHANNELS 3 Zrotation Xrotation Yrotation
                        End Site
                        {
                          OFFSET 0.2358 -1.9176 -0.0906
                        }
                      }
                    }
                  }
                  JOINT RightFinger4
                  {
                    OFFSET 0.6151 -8.0947 -3.564
                    CHANNELS 3 Zrotation Xrotation Yrotation
                    JOINT RightFinger41
                    {
                      OFFSET 0.4882 -2.341 -0.6462
                      CHANNELS 3 Zrotation Xrotation Yrotation
                      JOINT RightFinger42
                      {
                        OFFSET 0.3574 -1.7166 -0.4742
                        CHANNELS 3 Zrotation Xrotation Yrotation
                        End Site
                        {
                          OFFSET 0.4187 -1.5237 -0.3496
                        }
                      }
                    }
                  }
                  JOINT RightFinger0
                  {
                    OFFSET 1.4199 -1.8761 1.4221
                    CHANNELS 3 Zrotation Xrotation Yrotation
                    JOINT RightFinger01
                    {
                      OFFSET 1.1472 -3.4929 2.6336
                      CHANNELS 3 Zrotation Xrotation Yrotation
                      JOINT RightFinger02
                      {
                        OFFSET 0.8229 -2.3 1.6571
                        CHANNELS 3 Zrotation Xrotation Yrotation
                        End Site
                        {
                          OFFSET 0.5822 -1.6914 1.1582
                        }
                      }
                    }
                  }
                }
              }
            }
          }
        }
      }
    }
    JOINT RightHip
    {
      OFFSET -9.412 3.9771 -0.7758
      CHANNELS 3 Zrotation Xrotation Yrotation
      JOINT RightKnee
      {
        OFFSET -0.7531 -40.938 0
        CHANNELS 3 Zrotation Xrotation Yrotation
        JOINT RightAnkle
        {
          OFFSET 0 -40.1986 0
          CHANNELS 3 Zrotation Xrotation Yrotation
          JOINT RightToe
          {
            OFFSET 0 -4.4182 9.239
            CHANNELS 3 Zrotation Xrotation Yrotation
            End Site
            {
              OFFSET 0 0 6.1981
            }
          }
        }
      }
    }
    JOINT LeftHip
    {
      OFFSET 9.4119 3.9773 -0.7758
      CHANNELS 3 Zrotation Xrotation Yrotation
      JOINT LeftKnee
      {
        OFFSET 0.7532 -40.9383 0
        CHANNELS 3 Zrotation Xrotation Yrotation
        JOINT LeftAnkle
        {
          OFFSET 0 -40.1986 0
          CHANNELS 3 Zrotation Xrotation Yrotation
          JOINT LeftToe
          {
            OFFSET 0 -4.4182 9.239
            CHANNELS 3 Zrotation Xrotation Yrotation
            End Site
            {
              OFFSET 0 0 6.1981
            }
          }
        }
      }
    }
  }
}
MOTION
Frames:	6
Frame Time:	0.0333333
-38.2961 -3.48347 -49.6349 0 0 -0 -0.634997 6.14335 101.884 -3.87875e-005 -2.15292 1.02157 0.038402 -4.30549 2.04524 0.0384035 -4.3055 2.04526 -0.572292 13.6138 -8.57444 -6.32936 -1.09988 -8.80753 0.496449 0.856067 -4.26274 4.06421 31.6632 27.2212 -10.3749 -22.1195 -10.3241 -12.0605 1.40878 41.7644 -2.3536e-005 0.000180796 0.000146377 0.000306041 -4.26201e-005 -0.000233754 -0.000191503 5.44358e-005 1.40022e-005 2.03447 -1.26686 0.222397 -0.16781 -0.876186 0.196067 2.03554 -1.26784 0.222664 2.14037 -6.29026 2.63604 -0.361923 -2.21292 0.750563 4.51007 -3.05779 0.715169 11.4153 -7.35223 2.6052 -0.0648455 -1.7371 1.50185 2.78868 -1.86625 0.506467 0.000227738 -8.38981e-007 -0.000392667 -0.000174385 2.24118e-005 0.000275461 -0.000181596 5.67204e-005 5.53267e-006 -44.4584 -1.12581 12.6009 -93.066 9.49332 -52.0611 -3.50389 -25.8583 -35.2729 5.22762 6.5812 -23.1092 -26.3168 9.86702 9.08433 39.4242 12.0338 -4.97718 38.7303 11.8651 -4.82267 -2.2335 10.2523 5.03865 52.3753 15.6205 -6.402 44.0892 13.7161 -4.48629 15.0073 7.5869 -5.70562 37.2883 13.8497 -2.53195 38.5715 14.2637 -2.77361 23.054 4.37541 -8.90256 30.7535 11.5468 -0.514487 30.6849 11.5225 -0.506237 7.91152 0.880202 52.6243 -0.671307 1.52887 0.489674 -4.02431 8.6295 3.04556 -4.16336 -16.8108 45.6057 14.7159 46.9995 -7.83736 -14.3939 -3.17281 -22.4286 25.083 -3.02993 -8.12425 -22.6958 3.30591 -2.02675 0.433061 -0.00024015 0.618527 8.83932 -2.41823 -5.4465 5.75822 5.01367 -0.805447 
-38.2523 -3.50765 -49.7226 0 0 -0 -0.723752 6.23374 102.282 -0.017233 -2.14466 0.97611 0.00213291 -4.28929 1.95364 0.00212923 -4.28929 1.95363 -0.568929 13.4717 -8.55138 -6.39335 -1.12833 -8.82988 0.616353 0.869526 -4.1399 4.1557 31.4157 27.0946 -10.4514 -22.1197 -10.3086 -11.2182 1.53028 41.6264 -0.0400333 0.0536765 -0.0106541 -0.0292416 0.0183464 -0.00181795 -0.036676 0.0227508 -0.0019262 1.99753 -1.23886 0.208547 -0.164129 -0.855076 0.191823 1.99948 -1.2455 0.218341 2.10543 -6.25397 2.62683 -0.357877 -2.18558 0.742702 4.46747 -3.02932 0.707314 11.3467 -7.31724 2.58922 -0.0649356 -1.70989 1.47749 2.75109 -1.84134 0.499049 0.0137645 0.0311861 -0.00810651 -0.00877866 -0.0113853 0.00264897 0.0191911 0.0257611 -0.0053418 -44.5135 -1.12967 12.3868 -93.3355 9.51572 -52.0076 -3.36181 -25.4801 -34.8584 5.4377 6.39388 -23.4666 -26.3168 9.86703 9.08434 39.4242 12.0338 -4.97718 38.7303 11.8651 -4.82268 -2.23351 10.2523 5.03864 52.3753 15.6205 -6.40199 44.0892 13.7161 -4.48629 15.0073 7.58692 -5.70562 37.2883 13.8496 -2.53194 38.5715 14.2637 -2.7736 23.054 4.37542 -8.90258 30.7535 11.5468 -0.514487 30.6849 11.5225 -0.506235 7.9115 0.880222 52.6243 -0.671312 1.52887 0.48967 -4.02431 8.6295 3.04557 -4.40353 -16.7428 45.3734 14.7981 47.0253 -7.89595 -14.3684 -3.38626 -22.5403 25.0743 -3.09442 -8.08939 -22.8254 3.39851 -2.36054 0.431914 -0.00023868 0.611014 8.78219 -2.3966 -5.53244 5.76531 4.95708 -0.79973 
-38.1962 -3.53479 -49.8171 0 0 -0 -0.794449 6.31868 102.698 -0.0373207 -2.12699 0.917178 -0.0405622 -4.25431 1.83487 -0.0405668 -4.25432 1.83484 -0.568946 13.3346 -8.56834 -6.42177 -1.15572 -8.84528 0.76836 0.881062 -4.0368 4.19708 31.1868 26.9555 -10.4337 -22.1786 -10.3221 -10.6739 1.47562 41.7074 -0.156351 0.209288 -0.0420653 -0.11527 0.0718472 -0.00635754 -0.14289 0.0888218 -0.0075233 1.89025 -1.15743 0.168288 -0.153456 -0.793676 0.179307 1.89465 -1.18049 0.205844 2.00331 -6.15003 2.59663 -0.346105 -2.10613 0.719642 4.34349 -2.94646 0.6846 11.1473 -7.21546 2.54306 -0.0639615 -1.64865 1.42703 2.64179 -1.76887 0.477602 0.0534065 0.121841 -0.0307286 -0.0173808 -0.0228123 0.00501687 0.0385687 0.0514522 -0.0106956 -44.5754 -1.13302 12.2195 -93.4274 9.5892 -51.9843 -3.36263 -25.287 -34.7597 5.56543 6.30594 -23.5197 -26.3168 9.86703 9.08434 39.4242 12.0338 -4.97716 38.7303 11.8651 -4.82265 -2.23351 10.2523 5.03866 52.3753 15.6205 -6.40198 44.0892 13.7161 -4.48628 15.0073 7.58692 -5.7056 37.2883 13.8497 -2.53193 38.5715 14.2637 -2.77359 23.054 4.37542 -8.90256 30.7535 11.5468 -0.514483 30.6849 11.5224 -0.506228 7.91149 0.880214 52.6243 -0.671302 1.52886 0.48968 -4.0243 8.6295 3.04557 -4.67279 -16.6438 45.0112 14.8596 47.0411 -7.94137 -14.3313 -3.57693 -22.6321 25.0657 -3.1589 -8.05451 -22.9416 3.51827 -2.54168 0.430803 -0.000195879 0.600977 8.6909 -2.40731 -5.82436 5.76941 4.92454 -0.796431 
-38.1302 -3.55827 -49.9253 0 0 -0 -0.832683 6.43765 103.346 -0.0704551 -2.08321 0.806351 -0.111652 -4.16722 1.61176 -0.111656 -4.16722 1.61174 -0.571655 13.2002 -8.68959 -6.46032 -1.25505 -8.83618 0.970729 0.900623 -3.85738 4.28617 30.7998 26.727 -10.3421 -22.14 -10.3288 -10.5511 1.48272 41.9824 -0.343422 0.459722 -0.0924563 -0.253736 0.158005 -0.0135137 -0.313814 0.195198 -0.0162687 1.71758 -1.02635 0.1037 -0.136227 -0.69494 0.158817 1.72596 -1.0758 0.185944 1.83926 -5.98264 2.54818 -0.327046 -1.97838 0.68198 4.14409 -2.81303 0.64842 10.8267 -7.05122 2.46961 -0.0607531 -1.55708 1.35711 2.46959 -1.65138 0.434246 0.11716 0.267756 -0.0671798 -0.0416152 -0.0549407 0.0116869 0.0930986 0.123732 -0.0258223 -44.7152 -1.13873 12.0114 -93.2856 9.74155 -51.9991 -3.37479 -25.3472 -35.0547 5.51008 6.30767 -23.1867 -26.3168 9.86704 9.08434 39.4242 12.0338 -4.97713 38.7304 11.8651 -4.82266 -2.2335 10.2523 5.03864 52.3753 15.6205 -6.40198 44.0892 13.7161 -4.48628 15.0073 7.58691 -5.70556 37.2883 13.8497 -2.53191 38.5715 14.2637 -2.77358 23.054 4.37541 -8.90255 30.7535 11.5468 -0.514464 30.6849 11.5225 -0.506211 7.91151 0.88021 52.6243 -0.671298 1.52888 0.489688 -4.02432 8.6295 3.04558 -5.08724 -16.4427 44.3235 14.8733 47.0084 -7.94814 -14.3002 -3.77483 -22.7036 25.0128 -3.52344 -7.85735 -23.0635 3.74347 -2.96032 0.42933 -0.00021255 0.594782 8.6506 -2.3166 -6.19791 5.79896 4.68983 -0.772556 
-38.043 -3.57717 -50.0248 0 0 -0 -0.834492 6.50976 103.84 -0.0880275 -2.0744 0.746291 -0.14913 -4.14977 1.49092 -0.149129 -4.14975 1.49091 -0.579058 13.1957 -8.75757 -6.51105 -1.15595 -8.87322 1.10209 0.916387 -3.71247 4.35233 30.6795 26.6059 -10.1581 -22.2147 -10.4065 -10.5199 1.28397 42.3829 -0.595783 0.797718 -0.160073 -0.440614 0.274293 -0.0228532 -0.544485 0.338778 -0.0275687 1.48462 -0.849294 0.017024 -0.112939 -0.561827 0.130418 1.49837 -0.934435 0.159589 1.61815 -5.75642 2.48323 -0.301181 -1.80633 0.630077 3.87513 -2.63275 0.600354 10.3945 -6.82874 2.3723 -0.0576132 -1.42538 1.2498 2.23056 -1.49216 0.387179 0.203247 0.464651 -0.116289 -0.0657777 -0.0870509 0.0183336 0.147667 0.196025 -0.0410248 -44.8048 -1.14239 11.8692 -93.1192 9.92397 -51.8956 -3.41042 -25.5461 -35.0637 5.45401 6.36752 -23.0101 -26.3168 9.86703 9.08434 39.4242 12.0338 -4.97713 38.7304 11.8651 -4.82264 -2.23349 10.2523 5.03865 52.3753 15.6205 -6.40197 44.0892 13.7161 -4.48625 15.0073 7.58696 -5.7055 37.2883 13.8497 -2.53187 38.5715 14.2637 -2.77355 23.054 4.37544 -8.90257 30.7535 11.5468 -0.514463 30.6849 11.5224 -0.506187 7.9115 0.88022 52.6243 -0.671303 1.52887 0.489707 -4.02431 8.62949 3.04559 -5.44019 -16.2244 43.6787 14.9005 46.9346 -7.95385 -14.1143 -4.24574 -22.7407 25.0147 -3.45346 -7.89456 -23.142 3.9903 -3.49213 0.426856 -0.0258971 0.569589 8.43023 -2.35988 -6.11798 5.77226 4.90187 -0.794107 
-37.9286 -3.6013 -50.167 0 0 -0 -0.781795 6.68729 104.715 -0.13569 -2.02015 0.6013 -0.250373 -4.04159 1.19895 -0.250373 -4.0416 1.19897 -0.582501 12.9943 -8.75537 -6.53544 -1.04287 -8.86635 1.37051 0.969761 -3.21762 4.43919 30.2706 26.3431 -9.96651 -22.2261 -10.4424 -10.4858 1.26335 42.7544 -0.907814 1.21596 -0.243145 -0.671802 0.418231 -0.0338585 -0.829906 0.516521 -0.0407521 1.19651 -0.630082 -0.0893487 -0.0840535 -0.397418 0.0940916 1.21685 -0.759362 0.127782 1.34515 -5.47618 2.40348 -0.269075 -1.59394 0.564171 3.5426 -2.40936 0.542046 9.86061 -6.55226 2.25469 -0.0535372 -1.26323 1.11602 1.93552 -1.29919 0.342198 0.310063 0.708277 -0.177384 -0.103235 -0.13676 0.0285964 0.238337 0.316064 -0.0664105 -45.031 -1.14928 11.6862 -92.7405 10.3052 -51.5725 -3.47473 -25.8673 -34.7327 5.38962 6.32811 -23.519 -26.3168 9.86703 9.08433 39.4242 12.0338 -4.97712 38.7304 11.8651 -4.82261 -2.2335 10.2523 5.03865 52.3753 15.6205 -6.40195 44.0892 13.7161 -4.4862 15.0073 7.58691 -5.70562 37.2883 13.8497 -2.53182 38.5715 14.2637 -2.77349 23.0539 4.37543 -8.90255 30.7535 11.5468 -0.514411 30.6849 11.5224 -0.506103 7.9115 0.880223 52.6244 -0.671324 1.52885 0.489736 -4.02431 8.62949 3.04561 -6.14831 -15.7894 42.3059 14.8124 46.7131 -7.88094 -14.0505 -5.05524 -22.7571 25.0068 -3.44451 -7.8987 -23.2943 4.40308 -3.81622 0.423843 -0.000188673 0.547247 8.21975 -2.39702 -6.57845 5.77899 4.8483 -0.788679 
